<svg width="5363" height="5229" viewBox="0 0 5363 5229" fill="none" xmlns="http://www.w3.org/2000/svg">
<ellipse cx="2681.18" cy="2614.5" rx="2681.18" ry="2614.5" fill="white"/>
<path d="M2681.18 169C4067.92 169 5190.18 1264.94 5190.18 2614.5C5190.18 3964.06 4067.92 5060 2681.18 5060C1294.43 5060 172.175 3964.06 172.175 2614.5C172.175 1264.94 1294.43 169 2681.18 169Z" stroke="#007DA5" stroke-linejoin="miter" stroke-miterlimit="10" stroke-width="89"/>
<path d="M2691.18 416C3939.9 416 4950.18 1401.63 4950.18 2615C4950.18 3828.37 3939.9 4814 2691.18 4814C1442.45 4814 432.175 3828.37 432.175 2615C432.175 1401.63 1442.45 416 2691.18 416Z" stroke="#007DA5" stroke-linejoin="miter" stroke-miterlimit="10" stroke-width="89"/>
<ellipse cx="2674.68" cy="2608.5" rx="1933" ry="1883" fill="#001B3D"/>
<path d="M1708.18 1805.5C2102.49 1805.5 2421.68 2123.63 2421.68 2515.5C2421.68 2907.37 2102.49 3225.5 1708.18 3225.5C1313.86 3225.5 994.675 2907.37 994.675 2515.5C994.675 2123.63 1313.86 1805.5 1708.18 1805.5Z" stroke="white" stroke-linejoin="miter" stroke-miterlimit="10" stroke-width="120"/>
<path d="M3648.18 1805.5C4042.49 1805.5 4361.68 2123.63 4361.68 2515.5C4361.68 2907.37 4042.49 3225.5 3648.18 3225.5C3253.86 3225.5 2934.68 2907.37 2934.68 2515.5C2934.68 2123.63 3253.86 1805.5 3648.18 1805.5Z" stroke="white" stroke-linejoin="miter" stroke-miterlimit="10" stroke-width="120"/>
<path d="M2405.18 2867V2351H2928.18L2960.18 2867L2668.18 2569L2405.18 2867Z" fill="white"/>
<path d="M2678.28 2558.31L2718.24 2613.77C2719.57 2615.6 2720.37 2616.71 2721.43 2618.17C2723.54 2621.07 2726.66 2625.35 2730.63 2630.77C2738.58 2641.61 2749.97 2657.01 2763.64 2675.21C2791.05 2711.67 2827.44 2759.03 2863.8 2803.25C2899.68 2846.89 2932.4 2881.9 2956.05 2905.91C2967.86 2917.91 2977.39 2927.13 2983.88 2933.29C2987.13 2936.36 2989.61 2938.67 2991.25 2940.17C2993.46 2942.19 2993.48 2942.21 2993.5 2942.22L3027.29 2972.42L3000.54 3009.01C2998.96 3011.18 2998.01 3012.47 2996.79 3014.15C2994.35 3017.51 2990.8 3022.41 2986.39 3028.53C2977.56 3040.78 2965.28 3057.91 2951.52 3077.4C2923.85 3116.6 2890.76 3164.55 2867.53 3201.57C2843.71 3239.53 2806.98 3299.42 2776.1 3350C2760.68 3375.24 2746.76 3398.11 2736.69 3414.66C2731.66 3422.94 2727.59 3429.63 2724.78 3434.26C2723.37 3436.57 2722.28 3438.37 2721.55 3439.58L2674.51 3517.1L2633.4 3438.73C2632.31 3436.67 2631.62 3435.37 2630.7 3433.66C2628.86 3430.23 2626.12 3425.15 2622.55 3418.67C2615.42 3405.7 2605.03 3387.12 2592.05 3364.88C2566.05 3320.31 2529.96 3261.49 2489.3 3203.8C2447.54 3144.53 2413.15 3095.64 2389.2 3061.56C2377.23 3044.52 2367.87 3031.19 2361.49 3022.11C2358.31 3017.57 2355.87 3014.1 2354.23 3011.76L2327.21 2973.23L2357.93 2943.55C2359.51 2942.02 2360.46 2941.09 2361.7 2939.88C2364.18 2937.46 2367.8 2933.92 2372.3 2929.48C2381.3 2920.6 2393.8 2908.17 2407.76 2893.96C2436 2865.22 2469.1 2830.37 2491.66 2803.12C2514.87 2775.07 2551.14 2727.88 2582.07 2687.05C2597.43 2666.78 2611.31 2648.3 2621.34 2634.89C2626.36 2628.18 2630.41 2622.75 2633.21 2619C2634.61 2617.12 2635.69 2615.66 2636.43 2614.68L2678.28 2558.31Z" stroke="white" stroke-linejoin="miter" stroke-miterlimit="10" stroke-width="100"/>
<path d="M1886.17 2279.02C1940.18 2317.7 1981.02 2373 2002.88 2437.06C2024.74 2501.11 2026.51 2570.65 2007.93 2635.8C1989.35 2700.96 1951.38 2758.4 1899.41 2799.96C1847.44 2841.52 1784.11 2865.1 1718.43 2867.33C1652.76 2869.56 1588.07 2850.33 1533.57 2812.38C1479.07 2774.43 1437.54 2719.69 1414.86 2655.94C1392.19 2592.19 1389.54 2522.68 1407.28 2457.28C1425.03 2391.88 1462.27 2333.93 1513.71 2291.66" stroke="#00F2FF" stroke-width="101" stroke-linecap="round"/>
<line x1="1695.58" y1="2178.6" x2="1697.77" y2="2454.6" stroke="#00F2FF" stroke-width="101" stroke-linecap="round"/>
<path d="M3826.17 2279.02C3880.18 2317.7 3921.02 2373 3942.88 2437.06C3964.74 2501.11 3966.51 2570.65 3947.93 2635.8C3929.35 2700.96 3891.38 2758.4 3839.41 2799.96C3787.44 2841.52 3724.11 2865.1 3658.43 2867.33C3592.76 2869.56 3528.07 2850.33 3473.57 2812.38C3419.07 2774.43 3377.54 2719.69 3354.86 2655.94C3332.19 2592.19 3329.54 2522.68 3347.28 2457.28C3365.03 2391.88 3402.27 2333.93 3453.71 2291.66" stroke="#00F2FF" stroke-width="101" stroke-linecap="round"/>
<mask id="path-12-outside-1_0_1" maskUnits="userSpaceOnUse" x="492.175" y="220.921" width="4370" height="2293" fill="black">
<rect fill="white" x="492.175" y="220.921" width="4370" height="2293"/>
<path d="M661.176 566.5C661.24 566.687 778.299 907.577 1228.67 1187.5C1679.17 1467.5 1761.18 1370.64 2168.18 1685C2575.12 1999.31 2631.16 2465.37 2631.17 2465.5C2548.78 2290.4 2170.17 1954 1791.17 1870C1412.17 1786 1022.17 1722 813.675 1493C605.176 1264 605.176 1007 605.176 867C605.176 727 661.176 566.5 661.176 566.5ZM4692.67 566.5C4692.67 566.5 4748.67 727 4748.67 867C4748.67 1007 4748.67 1264 4540.18 1493C4331.68 1722 3941.68 1786 3562.68 1870C3183.68 1954 2805.07 2290.4 2722.68 2465.5C2722.7 2465.31 2778.75 1999.29 3185.67 1685C3592.68 1370.64 3674.68 1467.5 4125.18 1187.5C4575.65 907.513 4692.66 566.533 4692.67 566.5Z"/>
</mask>
<path d="M661.176 566.5C661.24 566.687 778.299 907.577 1228.67 1187.5C1679.17 1467.5 1761.18 1370.64 2168.18 1685C2575.12 1999.31 2631.16 2465.37 2631.17 2465.5C2548.78 2290.4 2170.17 1954 1791.17 1870C1412.17 1786 1022.17 1722 813.675 1493C605.176 1264 605.176 1007 605.176 867C605.176 727 661.176 566.5 661.176 566.5ZM4692.67 566.5C4692.67 566.5 4748.67 727 4748.67 867C4748.67 1007 4748.67 1264 4540.18 1493C4331.68 1722 3941.68 1786 3562.68 1870C3183.68 1954 2805.07 2290.4 2722.68 2465.5C2722.7 2465.31 2778.75 1999.29 3185.67 1685C3592.68 1370.64 3674.68 1467.5 4125.18 1187.5C4575.65 907.513 4692.66 566.533 4692.67 566.5Z" fill="#001B3D"/>
<path d="M661.176 566.5L768.055 529.814L662.049 220.985L554.484 529.274L661.176 566.5ZM1228.67 1187.5L1169.02 1283.47V1283.47L1228.67 1187.5ZM2168.18 1685L2237.25 1595.57V1595.57L2168.18 1685ZM2631.17 2465.5L2528.93 2513.61L2743.37 2452.02L2631.17 2465.5ZM1791.17 1870L1815.63 1759.68V1759.68L1791.17 1870ZM813.675 1493L730.119 1569.08H730.119L813.675 1493ZM605.176 867L492.176 867L605.176 867ZM4692.67 566.5L4799.37 529.274L4691.78 220.932L4585.79 529.825L4692.67 566.5ZM4748.67 867L4861.67 867L4748.67 867ZM4540.18 1493L4623.73 1569.08V1569.08L4540.18 1493ZM3562.68 1870L3538.22 1759.68V1759.68L3562.68 1870ZM2722.68 2465.5L2610.48 2452.01L2824.92 2513.61L2722.68 2465.5ZM3185.67 1685L3116.6 1595.57V1595.57L3185.67 1685ZM4125.18 1187.5L4184.83 1283.47V1283.47L4125.18 1187.5ZM661.176 566.5L554.297 603.186C559.785 619.174 689.757 985.593 1169.02 1283.47L1228.67 1187.5L1288.33 1091.53C866.841 829.561 762.696 514.201 768.055 529.814L661.176 566.5ZM1228.67 1187.5L1169.02 1283.47C1403.98 1429.51 1545.86 1478.51 1673.48 1528.56C1793.23 1575.53 1905.65 1625.01 2099.1 1774.43L2168.18 1685L2237.25 1595.57C2023.7 1430.63 1891.62 1371.36 1756 1318.17C1628.24 1268.06 1503.87 1225.49 1288.33 1091.53L1228.67 1187.5ZM2168.18 1685L2099.1 1774.43C2468.65 2059.86 2519.87 2486.34 2518.98 2478.98L2631.17 2465.5L2743.37 2452.02C2742.45 2444.39 2681.59 1938.76 2237.25 1595.57L2168.18 1685ZM2631.17 2465.5L2733.42 2417.39C2680.75 2305.45 2548.51 2164.24 2391.05 2043.82C2230.63 1921.15 2026.33 1806.38 1815.63 1759.68L1791.17 1870L1766.72 1980.32C1935.02 2017.62 2109.52 2113.05 2253.76 2223.35C2400.95 2335.91 2499.21 2450.44 2528.93 2513.61L2631.17 2465.5ZM1791.17 1870L1815.63 1759.68C1621.39 1716.63 1437.46 1681.31 1273.17 1628.33C1109.43 1575.53 981.914 1509.93 897.23 1416.92L813.675 1493L730.119 1569.08C853.936 1705.07 1025.67 1785.97 1203.8 1843.42C1381.39 1900.69 1581.96 1939.37 1766.72 1980.32L1791.17 1870ZM813.675 1493L897.23 1416.92C719.926 1222.19 718.176 1004.92 718.176 867L605.176 867L492.176 867C492.176 1009.08 490.426 1305.81 730.119 1569.08L813.675 1493ZM605.176 867L718.176 867C718.176 810.065 729.856 744.952 742.982 690.927C749.377 664.603 755.773 642.283 760.522 626.694C762.889 618.923 764.828 612.886 766.127 608.931C766.776 606.955 767.264 605.504 767.563 604.621C767.713 604.179 767.815 603.88 767.867 603.729C767.893 603.654 767.907 603.615 767.907 603.615C767.907 603.614 767.904 603.623 767.897 603.642C767.894 603.651 767.89 603.663 767.885 603.677C767.883 603.684 767.878 603.696 767.877 603.7C767.873 603.713 767.868 603.726 661.176 566.5C554.484 529.274 554.478 529.289 554.473 529.304C554.471 529.31 554.465 529.326 554.461 529.338C554.453 529.362 554.444 529.388 554.434 529.417C554.414 529.474 554.39 529.542 554.364 529.619C554.31 529.774 554.243 529.968 554.163 530.2C554.003 530.665 553.791 531.284 553.531 532.053C553.01 533.589 552.294 535.722 551.412 538.409C549.648 543.778 547.213 551.374 544.33 560.837C538.579 579.717 530.974 606.272 523.37 637.572C508.495 698.798 492.176 783.935 492.176 867L605.176 867ZM4692.67 566.5C4585.98 603.726 4585.98 603.713 4585.97 603.7C4585.97 603.696 4585.97 603.684 4585.97 603.677C4585.96 603.663 4585.96 603.651 4585.95 603.642C4585.95 603.623 4585.94 603.614 4585.94 603.615C4585.94 603.615 4585.96 603.654 4585.98 603.729C4586.04 603.88 4586.14 604.179 4586.29 604.621C4586.59 605.504 4587.07 606.955 4587.72 608.931C4589.02 612.886 4590.96 618.923 4593.33 626.694C4598.08 642.283 4604.47 664.603 4610.87 690.927C4623.99 744.952 4635.67 810.065 4635.67 867L4748.67 867L4861.67 867C4861.67 783.935 4845.36 698.798 4830.48 637.572C4822.88 606.272 4815.27 579.717 4809.52 560.837C4806.64 551.374 4804.2 543.778 4802.44 538.409C4801.56 535.722 4800.84 533.589 4800.32 532.053C4800.06 531.284 4799.85 530.665 4799.69 530.2C4799.61 529.968 4799.54 529.774 4799.49 529.619C4799.46 529.542 4799.44 529.474 4799.42 529.417C4799.41 529.388 4799.4 529.362 4799.39 529.338C4799.39 529.326 4799.38 529.31 4799.38 529.304C4799.37 529.289 4799.37 529.274 4692.67 566.5ZM4748.67 867L4635.67 867C4635.67 1004.92 4633.92 1222.19 4456.62 1416.92L4540.18 1493L4623.73 1569.08C4863.42 1305.81 4861.67 1009.08 4861.67 867L4748.67 867ZM4540.18 1493L4456.62 1416.92C4371.94 1509.93 4244.42 1575.53 4080.68 1628.33C3916.39 1681.31 3732.46 1716.63 3538.22 1759.68L3562.68 1870L3587.13 1980.32C3771.89 1939.37 3972.46 1900.69 4150.05 1843.42C4328.18 1785.97 4499.92 1705.07 4623.73 1569.08L4540.18 1493ZM3562.68 1870L3538.22 1759.68C3327.52 1806.38 3123.22 1921.15 2962.8 2043.82C2805.34 2164.24 2673.1 2305.45 2620.43 2417.39L2722.68 2465.5L2824.92 2513.61C2854.64 2450.44 2952.9 2335.91 3100.09 2223.35C3244.33 2113.05 3418.84 2017.62 3587.13 1980.32L3562.68 1870ZM2722.68 2465.5L2834.87 2478.99C2833.99 2486.29 2885.22 2059.84 3254.75 1774.43L3185.67 1685L3116.6 1595.57C2672.29 1938.74 2611.41 2444.33 2610.48 2452.01L2722.68 2465.5ZM3185.67 1685L3254.75 1774.43C3448.2 1625.01 3560.62 1575.53 3680.37 1528.56C3807.99 1478.51 3949.87 1429.51 4184.83 1283.47L4125.18 1187.5L4065.53 1091.53C3849.98 1225.49 3725.61 1268.06 3597.85 1318.17C3462.23 1371.36 3330.15 1430.63 3116.6 1595.57L3185.67 1685ZM4125.18 1187.5L4184.83 1283.47C4664.2 985.525 4794.12 619.008 4799.56 603.175L4692.67 566.5L4585.79 529.825C4591.2 514.057 4487.11 829.502 4065.53 1091.53L4125.18 1187.5Z" fill="white" mask="url(#path-12-outside-1_0_1)"/>
<line x1="3635.58" y1="2178.6" x2="3637.77" y2="2454.6" stroke="#00F2FF" stroke-width="101" stroke-linecap="round"/>
</svg>
