<svg viewBox="0 0 5107 4980" fill="none" xmlns="http://www.w3.org/2000/svg">
<path d="M2550.61 2433.81L2590.57 2489.27C2591.89 2491.1 2592.7 2492.21 2593.75 2493.67C2595.86 2496.57 2598.98 2500.85 2602.96 2506.27C2610.91 2517.11 2622.29 2532.51 2635.97 2550.71C2663.37 2587.17 2699.77 2634.53 2736.12 2678.75C2772.01 2722.39 2804.72 2757.4 2828.37 2781.41C2840.19 2793.41 2849.71 2802.63 2856.21 2808.79C2859.45 2811.86 2861.94 2814.17 2863.57 2815.67C2865.79 2817.69 2865.81 2817.71 2865.82 2817.72L2899.62 2847.92L2872.86 2884.51C2871.28 2886.68 2870.34 2887.97 2869.12 2889.65C2866.68 2893.01 2863.13 2897.91 2858.71 2904.03C2849.88 2916.28 2837.61 2933.41 2823.85 2952.9C2796.18 2992.1 2763.09 3040.05 2739.85 3077.07C2716.04 3115.03 2679.31 3174.92 2648.42 3225.5C2633 3250.74 2619.08 3273.61 2609.02 3290.16C2603.98 3298.44 2599.91 3305.13 2597.1 3309.76C2595.7 3312.07 2594.61 3313.87 2593.87 3315.08L2546.84 3392.6L2505.72 3314.23C2504.63 3312.17 2503.94 3310.87 2503.02 3309.16C2501.19 3305.73 2498.44 3300.65 2494.88 3294.17C2487.75 3281.2 2477.35 3262.62 2464.38 3240.38C2438.37 3195.81 2402.28 3136.99 2361.63 3079.3C2319.86 3020.03 2285.48 2971.14 2261.53 2937.06C2249.56 2920.02 2240.19 2906.69 2233.82 2897.61C2230.63 2893.07 2228.19 2889.6 2226.55 2887.26L2199.54 2848.73L2230.25 2819.05C2231.83 2817.52 2232.79 2816.59 2234.03 2815.38C2236.51 2812.96 2240.13 2809.42 2244.62 2804.98C2253.62 2796.1 2266.12 2783.67 2280.09 2769.46C2308.33 2740.72 2341.43 2705.87 2363.98 2678.62C2387.2 2650.57 2423.46 2603.38 2454.4 2562.55C2469.76 2542.28 2483.63 2523.8 2493.67 2510.39C2498.69 2503.68 2502.74 2498.25 2505.54 2494.5C2506.93 2492.62 2508.02 2491.16 2508.75 2490.18L2550.61 2433.81Z" stroke="#001B3D" stroke-linejoin="miter" stroke-miterlimit="10" stroke-width="100"/>
<path d="M1758.5 2154.52C1812.51 2193.2 1853.35 2248.5 1875.2 2312.56C1897.06 2376.61 1898.83 2446.15 1880.25 2511.3C1861.68 2576.46 1823.71 2633.9 1771.73 2675.46C1719.76 2717.02 1656.44 2740.6 1590.76 2742.83C1525.08 2745.06 1460.4 2725.83 1405.9 2687.88C1351.4 2649.93 1309.86 2595.19 1287.19 2531.44C1264.52 2467.69 1261.86 2398.18 1279.61 2332.78C1297.35 2267.38 1334.59 2209.43 1386.03 2167.16" stroke="#001B3D" stroke-width="101" stroke-linecap="round"/>
<line x1="1567.9" y1="2054.1" x2="1570.1" y2="2330.1" stroke="#001B3D" stroke-width="101" stroke-linecap="round"/>
<path d="M3698.5 2154.52C3752.51 2193.2 3793.35 2248.5 3815.2 2312.56C3837.06 2376.61 3838.83 2446.15 3820.25 2511.3C3801.68 2576.46 3763.71 2633.9 3711.73 2675.46C3659.76 2717.02 3596.44 2740.6 3530.76 2742.83C3465.08 2745.06 3400.4 2725.83 3345.9 2687.88C3291.4 2649.93 3249.86 2595.19 3227.19 2531.44C3204.52 2467.69 3201.86 2398.18 3219.61 2332.78C3237.35 2267.38 3274.59 2209.43 3326.03 2167.16" stroke="#001B3D" stroke-width="101" stroke-linecap="round"/>
<mask id="path-5-outside-1_127_17" maskUnits="userSpaceOnUse" x="363.501" y="96" width="4371" height="2294" fill="black">
<rect fill="white" x="363.501" y="96" width="4371" height="2294"/>
<path d="M533.501 442C533.565 442.187 650.624 783.077 1101 1063C1551.5 1343 1633.5 1246.14 2040.5 1560.5C2447.45 1874.81 2503.48 2340.87 2503.5 2341C2421.11 2165.9 2042.5 1829.5 1663.5 1745.5C1284.5 1661.5 894.499 1597.5 686 1368.5C477.501 1139.5 477.501 882.5 477.501 742.5C477.501 602.5 533.501 442 533.501 442ZM4565 442C4565 442 4621 602.5 4621 742.5C4621 882.5 4621 1139.5 4412.5 1368.5C4204 1597.5 3814 1661.5 3435 1745.5C3056 1829.5 2677.39 2165.9 2595 2341C2595.02 2340.81 2651.08 1874.79 3058 1560.5C3465 1246.14 3547 1343 3997.5 1063C4447.98 783.013 4564.99 442.033 4565 442Z"/>
</mask>
<path d="M533.501 442L640.38 405.314L534.374 96.4845L426.809 404.774L533.501 442ZM1101 1063L1041.35 1158.97V1158.97L1101 1063ZM2040.5 1560.5L2109.58 1471.07V1471.07L2040.5 1560.5ZM2503.5 2341L2401.25 2389.11L2615.69 2327.52L2503.5 2341ZM1663.5 1745.5L1687.95 1635.18V1635.18L1663.5 1745.5ZM686 1368.5L602.444 1444.58H602.444L686 1368.5ZM477.501 742.5L364.501 742.5L477.501 742.5ZM4565 442L4671.69 404.774L4564.11 96.4318L4458.12 405.325L4565 442ZM4621 742.5L4734 742.5L4621 742.5ZM4412.5 1368.5L4496.06 1444.58V1444.58L4412.5 1368.5ZM3435 1745.5L3410.55 1635.18V1635.18L3435 1745.5ZM2595 2341L2482.81 2327.51L2697.25 2389.11L2595 2341ZM3058 1560.5L2988.93 1471.07V1471.07L3058 1560.5ZM3997.5 1063L4057.15 1158.97V1158.97L3997.5 1063ZM533.501 442L426.622 478.686C432.11 494.674 562.082 861.093 1041.35 1158.97L1101 1063L1160.65 967.027C739.166 705.061 635.021 389.701 640.38 405.314L533.501 442ZM1101 1063L1041.35 1158.97C1276.31 1305.01 1418.19 1354.01 1545.8 1404.06C1665.55 1451.03 1777.98 1500.51 1971.43 1649.93L2040.5 1560.5L2109.58 1471.07C1896.03 1306.13 1763.95 1246.86 1628.32 1193.67C1500.56 1143.56 1376.19 1100.99 1160.65 967.027L1101 1063ZM2040.5 1560.5L1971.43 1649.93C2340.98 1935.36 2392.19 2361.84 2391.31 2354.48L2503.5 2341L2615.69 2327.52C2614.78 2319.89 2553.91 1814.26 2109.58 1471.07L2040.5 1560.5ZM2503.5 2341L2605.75 2292.89C2553.08 2180.95 2420.83 2039.74 2263.37 1919.32C2102.96 1796.65 1898.66 1681.88 1687.95 1635.18L1663.5 1745.5L1639.05 1855.82C1807.34 1893.12 1981.85 1988.55 2126.09 2098.85C2273.27 2211.41 2371.53 2325.94 2401.25 2389.11L2503.5 2341ZM1663.5 1745.5L1687.95 1635.18C1493.71 1592.13 1309.79 1556.81 1145.49 1503.83C981.756 1451.03 854.238 1385.43 769.555 1292.42L686 1368.5L602.444 1444.58C726.26 1580.57 897.993 1661.47 1076.13 1718.92C1253.71 1776.19 1454.29 1814.87 1639.05 1855.82L1663.5 1745.5ZM686 1368.5L769.555 1292.42C592.251 1097.69 590.501 880.424 590.501 742.5L477.501 742.5L364.501 742.5C364.501 884.576 362.75 1181.31 602.444 1444.58L686 1368.5ZM477.501 742.5L590.501 742.5C590.501 685.565 602.181 620.452 615.307 566.427C621.702 540.103 628.098 517.783 632.847 502.194C635.214 494.423 637.153 488.386 638.452 484.431C639.101 482.455 639.589 481.004 639.888 480.121C640.038 479.679 640.14 479.38 640.192 479.229C640.218 479.154 640.231 479.115 640.232 479.115C640.232 479.114 640.229 479.123 640.222 479.142C640.219 479.151 640.215 479.163 640.21 479.177C640.208 479.184 640.203 479.196 640.202 479.2C640.198 479.213 640.193 479.226 533.501 442C426.809 404.774 426.803 404.789 426.798 404.804C426.796 404.81 426.79 404.826 426.786 404.838C426.778 404.862 426.769 404.888 426.759 404.917C426.739 404.974 426.715 405.042 426.689 405.119C426.635 405.274 426.568 405.468 426.488 405.7C426.328 406.165 426.116 406.784 425.856 407.553C425.335 409.089 424.619 411.222 423.737 413.909C421.973 419.278 419.537 426.874 416.655 436.337C410.904 455.217 403.299 481.772 395.695 513.072C380.82 574.298 364.501 659.435 364.501 742.5L477.501 742.5ZM4565 442C4458.31 479.226 4458.3 479.213 4458.3 479.2C4458.3 479.196 4458.29 479.184 4458.29 479.177C4458.29 479.163 4458.28 479.151 4458.28 479.142C4458.27 479.123 4458.27 479.114 4458.27 479.115C4458.27 479.115 4458.28 479.154 4458.31 479.229C4458.36 479.38 4458.46 479.679 4458.61 480.121C4458.91 481.004 4459.4 482.455 4460.05 484.431C4461.35 488.386 4463.29 494.423 4465.65 502.194C4470.4 517.783 4476.8 540.103 4483.19 566.427C4496.32 620.452 4508 685.565 4508 742.5L4621 742.5L4734 742.5C4734 659.435 4717.68 574.298 4702.81 513.072C4695.2 481.772 4687.6 455.217 4681.85 436.337C4678.96 426.874 4676.53 419.278 4674.76 413.909C4673.88 411.222 4673.17 409.089 4672.64 407.553C4672.38 406.784 4672.17 406.165 4672.01 405.7C4671.93 405.468 4671.87 405.274 4671.81 405.119C4671.79 405.042 4671.76 404.974 4671.74 404.917C4671.73 404.888 4671.72 404.862 4671.71 404.838C4671.71 404.826 4671.7 404.81 4671.7 404.804C4671.7 404.789 4671.69 404.774 4565 442ZM4621 742.5L4508 742.5C4508 880.424 4506.25 1097.69 4328.95 1292.42L4412.5 1368.5L4496.06 1444.58C4735.75 1181.31 4734 884.576 4734 742.5L4621 742.5ZM4412.5 1368.5L4328.95 1292.42C4244.26 1385.43 4116.74 1451.03 3953.01 1503.83C3788.71 1556.81 3604.79 1592.13 3410.55 1635.18L3435 1745.5L3459.45 1855.82C3644.21 1814.87 3844.79 1776.19 4022.37 1718.92C4200.51 1661.47 4372.24 1580.57 4496.06 1444.58L4412.5 1368.5ZM3435 1745.5L3410.55 1635.18C3199.84 1681.88 2995.54 1796.65 2835.13 1919.32C2677.67 2039.74 2545.42 2180.95 2492.75 2292.89L2595 2341L2697.25 2389.11C2726.97 2325.94 2825.23 2211.41 2972.42 2098.85C3116.65 1988.55 3291.16 1893.12 3459.45 1855.82L3435 1745.5ZM2595 2341L2707.19 2354.49C2706.32 2361.79 2757.55 1935.34 3127.07 1649.93L3058 1560.5L2988.93 1471.07C2544.61 1814.24 2483.73 2319.83 2482.81 2327.51L2595 2341ZM3058 1560.5L3127.07 1649.93C3320.52 1500.51 3432.95 1451.03 3552.7 1404.06C3680.31 1354.01 3822.19 1305.01 4057.15 1158.97L3997.5 1063L3937.85 967.027C3722.31 1100.99 3597.94 1143.56 3470.18 1193.67C3334.55 1246.86 3202.47 1306.13 2988.93 1471.07L3058 1560.5ZM3997.5 1063L4057.15 1158.97C4536.53 861.025 4666.45 494.508 4671.88 478.675L4565 442L4458.12 405.325C4463.53 389.557 4359.43 705.002 3937.85 967.027L3997.5 1063Z" fill="#001B3D" mask="url(#path-5-outside-1_127_17)"/>
<line x1="3507.9" y1="2054.1" x2="3510.1" y2="2330.1" stroke="#001B3D" stroke-width="101" stroke-linecap="round"/>
<path d="M792.648 1461.9C822.09 1482.72 853.497 1501.77 886.59 1519.33C713.48 1801.47 614 2131.41 614 2484C614 3523.95 1479.43 4367 2547 4367C3614.57 4367 4480 3523.95 4480 2484C4480 2132.16 4380.94 1802.87 4208.51 1521.12C4241.67 1503.7 4273.17 1484.78 4302.71 1464.11C4485.09 1762.21 4590 2110.88 4590 2484C4590 3587.4 3672.58 4477 2547 4477C1421.42 4477 504 3587.4 504 2484C504 2109.95 609.426 1760.48 792.648 1461.9ZM2547 491C3107.74 491 3616.81 711.779 3986.54 1069.79C3951.59 1091.32 3918.89 1110.56 3888.09 1127.9C3540.5 801.637 3067.81 601 2547 601C2027.04 601 1555.03 800.988 1207.6 1126.31C1176.82 1108.93 1144.14 1089.65 1109.22 1068.09C1478.8 711.082 1987.15 491 2547 491Z" fill="#001B3D"/>
<path d="M2832.5 2742.5L2540.5 2444.5L2277.5 2742.5V2226.5H2426.43C2461.47 2268.6 2487.84 2307.71 2503.5 2341C2503.5 2340.96 2498.18 2296.79 2478.97 2226.5H2619.53C2600.33 2296.77 2595.01 2340.93 2595 2341C2610.66 2307.71 2637.03 2268.6 2672.07 2226.5H2800.5L2832.5 2742.5Z" fill="#001B3D"/>
<path d="M1314.31 1667.81C1427.96 1695.44 1546.26 1719.51 1663.5 1745.5C1665.94 1746.04 1668.37 1746.59 1670.81 1747.15C1641.29 1743.1 1611.15 1741 1580.5 1741C1219.07 1741 927 2032.53 927 2391C927 2749.47 1219.07 3041 1580.5 3041C1941.93 3041 2234 2749.47 2234 2391C2234 2163.5 2116.37 1962.97 1938.03 1846.8C2071.06 1914.22 2194.19 2002.13 2292.59 2089.83C2332.13 2182.34 2354 2284.13 2354 2391C2354 2816.26 2007.69 3161 1580.5 3161C1153.31 3161 807 2816.26 807 2391C807 2058.85 1018.26 1775.82 1314.31 1667.81Z" fill="#001B3D"/>
<path d="M3785.68 1667.44C4082.26 1775.19 4294 2058.48 4294 2391C4294 2816.26 3947.69 3161 3520.5 3161C3093.31 3161 2747 2816.26 2747 2391C2747 2282.74 2769.44 2179.71 2809.95 2086.24C2910.54 1997.21 3036.39 1908.25 3172.01 1841.02C2988.62 1956.24 2867 2159.68 2867 2391C2867 2749.47 3159.07 3041 3520.5 3041C3881.93 3041 4174 2749.47 4174 2391C4174 2032.53 3881.93 1741 3520.5 1741C3487.62 1741 3455.3 1743.42 3423.74 1748.07C3427.49 1747.19 3431.25 1746.33 3435 1745.5C3552.76 1719.4 3671.58 1695.23 3785.68 1667.44Z" fill="#001B3D"/>
<path d="M4492.8 1264.28C4729.43 1616.72 4867 2037.96 4867 2490.5C4867 3729.55 3835.69 4734 2563.5 4734C1291.31 4734 260 3729.55 260 2490.5C260 2047.09 392.074 1633.73 619.998 1285.69C637.23 1310.58 656.546 1335.34 678.198 1359.81C469.393 1688.71 349 2076.16 349 2490.5C349 3678.2 1338.24 4645 2563.5 4645C3788.76 4645 4778 3678.2 4778 2490.5C4778 2068.16 4652.91 1673.75 4436.6 1340.81C4457.65 1315.5 4476.29 1289.93 4492.8 1264.28ZM2563.5 247C3204.84 247 3784.96 502.271 4202.6 914.184C4180.53 932.862 4157.23 951.577 4132.63 970.219C3731.98 578.674 3177.36 336 2563.5 336C1943.33 336 1383.62 583.687 982.058 982.339C957.247 963.993 933.707 945.554 911.382 927.126C1329.94 507.625 1915.47 247 2563.5 247Z" fill="#001B3D"/>
<path d="M4599.79 1000.3C4918.35 1415.72 5107 1931.38 5107 2490C5107 3865.19 3963.76 4980 2553.5 4980C1143.24 4980 0 3865.19 0 2490C0 1935.27 186.029 1422.91 500.572 1009C508.214 1043.81 518.389 1079.82 531.932 1116.45C252.673 1505.9 89 1979.6 89 2490C89 3813.94 1190.27 4891 2553.5 4891C3916.73 4891 5018 3813.94 5018 2490C5018 1976.17 4852.12 1499.53 4569.42 1108.6C4582.64 1071.63 4592.48 1035.32 4599.79 1000.3ZM2553.5 0C3266.41 0 3911.08 284.884 4374.33 744.285C4355.93 765.709 4335.94 787.696 4314.24 810.048C3867.23 365.306 3243.97 89 2553.5 89C1860.81 89 1235.76 367.088 788.449 814.347C766.676 792.098 746.594 770.195 728.095 748.835C1191.67 286.77 1838.24 0 2553.5 0Z" fill="#001B3D"/>
</svg>
